<svg width="22" height="25" viewBox="0 0 22 25" fill="none" xmlns="http://www.w3.org/2000/svg">
<g clip-path="url(#clip0_1_33)">
<path d="M13.4441 14.9242C13.4441 14.9242 13.6115 14.7567 13.9463 14.4219C14.2811 14.0871 14.4486 13.4465 14.4486 12.5001C14.4486 11.5536 14.1137 10.7456 13.4441 10.0759C12.7744 9.4063 11.9664 9.07148 11.02 9.07148C10.0736 9.07148 9.26552 9.4063 8.59588 10.0759C7.92623 10.7456 7.59141 11.5536 7.59141 12.5001C7.59141 13.4465 7.92623 14.2545 8.59588 14.9242C9.26552 15.5938 10.0736 15.9286 11.02 15.9286C11.9664 15.9286 12.7744 15.5938 13.4441 14.9242ZM14.7566 8.76345C14.7566 8.76345 15.0133 9.02014 15.5267 9.53353C16.0401 10.0469 16.2968 11.0358 16.2968 12.5001C16.2968 13.9643 15.7834 15.2099 14.7566 16.2367C13.7298 17.2634 12.4843 17.7768 11.02 17.7768C9.5557 17.7768 8.31016 17.2634 7.28338 16.2367C6.25659 15.2099 5.7432 13.9643 5.7432 12.5001C5.7432 11.0358 6.25659 9.79023 7.28338 8.76345C8.31016 7.73666 9.5557 7.22327 11.02 7.22327C12.4843 7.22327 13.7298 7.73666 14.7566 8.76345ZM17.3816 6.13845C17.3816 6.13845 17.4419 6.19871 17.5624 6.31925C17.6829 6.43978 17.7432 6.6697 17.7432 7.00898C17.7432 7.34827 17.6227 7.63845 17.3816 7.87952C17.1405 8.12059 16.8503 8.24112 16.5111 8.24112C16.1718 8.24112 15.8816 8.12059 15.6405 7.87952C15.3994 7.63845 15.2789 7.34827 15.2789 7.00898C15.2789 6.6697 15.3994 6.37952 15.6405 6.13845C15.8816 5.89737 16.1718 5.77684 16.5111 5.77684C16.8503 5.77684 17.1405 5.89737 17.3816 6.13845ZM12.0445 4.05586C12.0445 4.05586 11.8894 4.05697 11.5791 4.0592C11.2689 4.06144 11.0825 4.06255 11.02 4.06255C10.9575 4.06255 10.616 4.06032 9.99543 4.05586C9.37489 4.05139 8.90391 4.05139 8.58248 4.05586C8.26105 4.06032 7.83025 4.07371 7.29007 4.09603C6.74989 4.11836 6.29007 4.163 5.91061 4.22996C5.53114 4.29693 5.21195 4.37952 4.95302 4.47773C4.50659 4.6563 4.11373 4.91523 3.77445 5.25452C3.43516 5.5938 3.17623 5.98666 2.99766 6.43309C2.89945 6.69202 2.81686 7.01121 2.74989 7.39068C2.68293 7.77014 2.63829 8.22996 2.61596 8.77014C2.59364 9.31032 2.58025 9.74112 2.57579 10.0626C2.57132 10.384 2.57132 10.855 2.57579 11.4755C2.58025 12.096 2.58248 12.4376 2.58248 12.5001C2.58248 12.5626 2.58025 12.9041 2.57579 13.5246C2.57132 14.1451 2.57132 14.6161 2.57579 14.9376C2.58025 15.259 2.59364 15.6898 2.61596 16.23C2.63829 16.7701 2.68293 17.23 2.74989 17.6094C2.81686 17.9889 2.89945 18.3081 2.99766 18.567C3.17623 19.0134 3.43516 19.4063 3.77445 19.7456C4.11373 20.0849 4.50659 20.3438 4.95302 20.5224C5.21195 20.6206 5.53114 20.7032 5.91061 20.7701C6.29007 20.8371 6.74989 20.8817 7.29007 20.9041C7.83025 20.9264 8.26105 20.9398 8.58248 20.9442C8.90391 20.9487 9.37489 20.9487 9.99543 20.9442C10.616 20.9398 10.9575 20.9376 11.02 20.9376C11.0825 20.9376 11.424 20.9398 12.0445 20.9442C12.6651 20.9487 13.1361 20.9487 13.4575 20.9442C13.7789 20.9398 14.2097 20.9264 14.7499 20.9041C15.2901 20.8817 15.7499 20.8371 16.1294 20.7701C16.5088 20.7032 16.828 20.6206 17.0869 20.5224C17.5334 20.3438 17.9262 20.0849 18.2655 19.7456C18.6048 19.4063 18.8637 19.0134 19.0423 18.567C19.1405 18.3081 19.2231 17.9889 19.2901 17.6094C19.357 17.23 19.4017 16.7701 19.424 16.23C19.4463 15.6898 19.4597 15.259 19.4642 14.9376C19.4686 14.6161 19.4686 14.1451 19.4642 13.5246C19.4597 12.9041 19.4575 12.5626 19.4575 12.5001C19.4575 12.4376 19.4597 12.096 19.4642 11.4755C19.4686 10.855 19.4686 10.384 19.4642 10.0626C19.4597 9.74112 19.4463 9.31032 19.424 8.77014C19.4017 8.22996 19.357 7.77014 19.2901 7.39068C19.2231 7.01121 19.1405 6.69202 19.0423 6.43309C18.8637 5.98666 18.6048 5.5938 18.2655 5.25452C17.9262 4.91523 17.5334 4.6563 17.0869 4.47773C16.828 4.37952 16.5088 4.29693 16.1294 4.22996C15.7499 4.163 15.2901 4.11836 14.7499 4.09603C14.2097 4.07371 13.7789 4.06032 13.4575 4.05586C13.1361 4.05139 12.6651 4.05139 12.0445 4.05586ZM21.2387 8.25452C21.2834 9.04023 21.3057 10.4554 21.3057 12.5001C21.3057 14.5447 21.2834 15.9599 21.2387 16.7456C21.1494 18.6027 20.5959 20.0402 19.578 21.0581C18.5602 22.0759 17.1227 22.6295 15.2655 22.7188C14.4798 22.7634 13.0646 22.7858 11.02 22.7858C8.97534 22.7858 7.56016 22.7634 6.77445 22.7188C4.9173 22.6295 3.4798 22.0759 2.46195 21.0581C1.44409 20.0402 0.890518 18.6027 0.801232 16.7456C0.75659 15.9599 0.734268 14.5447 0.734268 12.5001C0.734268 10.4554 0.75659 9.04023 0.801232 8.25452C0.890518 6.39737 1.44409 4.95987 2.46195 3.94202C3.4798 2.92416 4.9173 2.37059 6.77445 2.2813C7.56016 2.23666 8.97534 2.21434 11.02 2.21434C13.0646 2.21434 14.4798 2.23666 15.2655 2.2813C17.1227 2.37059 18.5602 2.92416 19.578 3.94202C20.5959 4.95987 21.1494 6.39737 21.2387 8.25452Z" fill="white"/>
</g>
<defs>
<clipPath id="clip0_1_33">
<rect width="20.58" height="24" fill="white" transform="matrix(1 0 0 -1 0.72998 24.5)"/>
</clipPath>
</defs>
</svg>
