<svg width="22" height="25" viewBox="0 0 22 25" fill="none" xmlns="http://www.w3.org/2000/svg">
<g clip-path="url(#clip0_1_41)">
<path d="M5.54821 8.8705V22.1428H1.12856V8.8705H5.54821ZM5.82946 4.77229C5.83838 5.42407 5.61294 5.96871 5.15312 6.40621C4.69329 6.84371 4.08838 7.06246 3.33838 7.06246H3.3116C2.57945 7.06246 1.99017 6.84371 1.54374 6.40621C1.09731 5.96871 0.874098 5.42407 0.874098 4.77229C0.874098 4.11157 1.10401 3.5647 1.56383 3.13166C2.02365 2.69863 2.6241 2.48211 3.36517 2.48211C4.10624 2.48211 4.69999 2.69863 5.14642 3.13166C5.59285 3.5647 5.82053 4.11157 5.82946 4.77229ZM21.4455 14.5357V22.1428H17.0393V15.0446C17.0393 14.1071 16.8585 13.3727 16.4969 12.8415C16.1353 12.3102 15.5705 12.0446 14.8027 12.0446C14.2402 12.0446 13.7692 12.1986 13.3897 12.5067C13.0103 12.8147 12.7268 13.1964 12.5393 13.6518C12.4411 13.9196 12.392 14.2812 12.392 14.7366V22.1428H7.98571C8.00356 18.5803 8.01249 15.6919 8.01249 13.4776C8.01249 11.2634 8.00803 9.94193 7.9991 9.51336L7.98571 8.8705H12.392V10.7991H12.3652C12.5437 10.5134 12.7268 10.2634 12.9143 10.0491C13.1018 9.83479 13.354 9.60264 13.671 9.35264C13.9879 9.10264 14.3763 8.90845 14.8362 8.77005C15.296 8.63166 15.8071 8.56246 16.3696 8.56246C17.8964 8.56246 19.1241 9.06916 20.0527 10.0826C20.9812 11.0959 21.4455 12.5803 21.4455 14.5357Z" fill="white"/>
</g>
<defs>
<clipPath id="clip0_1_41">
<rect width="20.58" height="24" fill="white" transform="matrix(1 0 0 -1 0.869812 24.5)"/>
</clipPath>
</defs>
</svg>
