<svg width="18" height="25" viewBox="0 0 18 25" fill="none" xmlns="http://www.w3.org/2000/svg">
<g clip-path="url(#clip0_1_37)">
<path d="M0.158474 8.49559C0.158474 7.5313 0.325885 6.62282 0.660706 5.77014C0.995527 4.91746 1.45758 4.17416 2.04687 3.54023C2.63615 2.9063 3.31472 2.35719 4.08258 1.89291C4.85044 1.42862 5.67633 1.08041 6.56026 0.848266C7.44419 0.616124 8.34597 0.500052 9.26562 0.500052C10.6763 0.500052 11.9888 0.796927 13.2031 1.39068C14.4174 1.98443 15.404 2.84827 16.1629 3.98219C16.9219 5.11612 17.3013 6.39737 17.3013 7.82595C17.3013 8.68309 17.2165 9.52237 17.0469 10.3438C16.8772 11.1652 16.6094 11.9554 16.2433 12.7143C15.8772 13.4733 15.4308 14.1407 14.904 14.7166C14.3772 15.2925 13.7299 15.7523 12.962 16.096C12.1942 16.4398 11.3504 16.6117 10.4308 16.6117C9.82365 16.6117 9.22097 16.4688 8.62276 16.1831C8.02454 15.8974 7.59597 15.5045 7.33704 15.0045C7.24776 15.3527 7.12276 15.855 6.96204 16.5112C6.80133 17.1675 6.69642 17.5916 6.64731 17.7835C6.59821 17.9755 6.50669 18.2925 6.37276 18.7344C6.23883 19.1764 6.12276 19.4934 6.02455 19.6853C5.92633 19.8773 5.78347 20.1563 5.59597 20.5224C5.40847 20.8884 5.20312 21.2344 4.9799 21.5603C4.75669 21.8862 4.4799 22.2724 4.14955 22.7188L3.96205 22.7858L3.84151 22.6518C3.70758 21.2501 3.64062 20.4108 3.64062 20.134C3.64062 19.3126 3.7366 18.3907 3.92856 17.3684C4.12053 16.346 4.4174 15.0626 4.81919 13.5179C5.22097 11.9733 5.45312 11.067 5.51562 10.7992C5.2299 10.2188 5.08705 9.46434 5.08705 8.53577C5.08705 7.7947 5.31919 7.09827 5.78347 6.44648C6.24776 5.79469 6.83705 5.4688 7.55133 5.4688C8.09597 5.4688 8.52008 5.64961 8.82365 6.01121C9.12722 6.37282 9.27901 6.83041 9.27901 7.38398C9.27901 7.97327 9.08258 8.82595 8.68972 9.94202C8.29687 11.0581 8.10044 11.8929 8.10044 12.4465C8.10044 13.009 8.30133 13.4755 8.70312 13.846C9.1049 14.2166 9.59151 14.4018 10.1629 14.4018C10.654 14.4018 11.1094 14.2902 11.529 14.067C11.9487 13.8438 12.2991 13.5402 12.5803 13.1563C12.8616 12.7724 13.1116 12.3483 13.3303 11.884C13.5491 11.4197 13.7187 10.9264 13.8393 10.4041C13.9598 9.88175 14.0491 9.38621 14.1071 8.91746C14.1652 8.44871 14.1942 8.00452 14.1942 7.58487C14.1942 6.04023 13.7053 4.83711 12.7277 3.9755C11.75 3.11389 10.4754 2.68309 8.90401 2.68309C7.1183 2.68309 5.62722 3.26121 4.4308 4.41746C3.23437 5.57371 2.63615 7.04023 2.63615 8.81702C2.63615 9.20987 2.69196 9.58934 2.80356 9.95541C2.91517 10.3215 3.03571 10.6117 3.16517 10.8259C3.29463 11.0402 3.41517 11.2434 3.52678 11.4353C3.63838 11.6273 3.69419 11.7634 3.69419 11.8438C3.69419 12.0938 3.62722 12.4197 3.4933 12.8215C3.35937 13.2233 3.19419 13.4242 2.99776 13.4242C2.9799 13.4242 2.90401 13.4108 2.77008 13.384C2.31472 13.2501 1.91071 13.0001 1.55803 12.634C1.20535 12.2679 0.933027 11.846 0.741063 11.3684C0.549099 10.8907 0.40401 10.4085 0.305795 9.92193C0.207581 9.43532 0.158474 8.95987 0.158474 8.49559Z" fill="white"/>
</g>
<defs>
<clipPath id="clip0_1_37">
<rect width="17.16" height="24" fill="white" transform="matrix(1 0 0 -1 0.149902 24.5)"/>
</clipPath>
</defs>
</svg>
