<svg width="22" height="25" viewBox="0 0 22 25" fill="none" xmlns="http://www.w3.org/2000/svg">
<g clip-path="url(#clip0_1_35)">
<path d="M18.0737 15.8751C18.0737 15.6786 17.9755 15.5581 17.7791 15.5134C17.1808 15.3795 16.6541 15.1161 16.1987 14.7233C15.7433 14.3304 15.3862 13.8483 15.1273 13.2768C15.0648 13.1072 15.0335 12.9956 15.0335 12.942C15.0335 12.8081 15.1206 12.692 15.2947 12.5938C15.4688 12.4956 15.6607 12.4197 15.8706 12.3661C16.0804 12.3126 16.2724 12.221 16.4465 12.0916C16.6206 11.9621 16.7076 11.7992 16.7076 11.6027C16.7076 11.4331 16.625 11.2925 16.4599 11.1809C16.2947 11.0692 16.1228 11.0134 15.9442 11.0134C15.8371 11.0134 15.6942 11.0492 15.5157 11.1206C15.3371 11.192 15.1987 11.2277 15.1005 11.2277C15.0648 11.2277 15.0112 11.2188 14.9398 11.2009C14.9844 10.3527 15.0067 9.8438 15.0067 9.67416C15.0067 8.9688 14.9308 8.45987 14.7791 8.14737C14.4576 7.45095 13.9978 6.90853 13.3996 6.52014C12.8014 6.13175 12.1228 5.93755 11.3639 5.93755C9.58709 5.93755 8.35941 6.67416 7.68084 8.14737C7.52905 8.45987 7.45316 8.9688 7.45316 9.67416C7.45316 9.8438 7.47548 10.3527 7.52012 11.2009C7.48441 11.2188 7.42191 11.2277 7.33262 11.2277C7.22548 11.2277 7.08262 11.1942 6.90405 11.1273C6.72548 11.0603 6.59155 11.0268 6.50226 11.0268C6.31476 11.0268 6.14289 11.0804 5.98664 11.1876C5.83039 11.2947 5.75226 11.4376 5.75226 11.6161C5.75226 11.8036 5.83932 11.9621 6.01343 12.0916C6.18753 12.221 6.3795 12.3126 6.58932 12.3661C6.79914 12.4197 6.9911 12.4956 7.16521 12.5938C7.33932 12.692 7.42637 12.8081 7.42637 12.942C7.42637 12.9956 7.39512 13.1072 7.33262 13.2768C6.76119 14.509 5.87726 15.2545 4.68084 15.5134C4.48441 15.5581 4.38619 15.6786 4.38619 15.8751C4.38619 16.2858 4.9978 16.5893 6.22101 16.7858C6.23887 16.8304 6.26566 16.9465 6.30137 17.134C6.33709 17.3215 6.38843 17.4576 6.45539 17.5425C6.52235 17.6273 6.62726 17.6697 6.77012 17.6697C6.87726 17.6697 7.04468 17.6496 7.27235 17.6094C7.50003 17.5692 7.67637 17.5492 7.80137 17.5492C8.11387 17.5492 8.41298 17.6161 8.69869 17.7501C8.98441 17.884 9.22548 18.0291 9.42191 18.1853C9.61834 18.3416 9.87503 18.4867 10.192 18.6206C10.509 18.7545 10.8505 18.8215 11.2166 18.8215C11.6005 18.8215 11.9532 18.7545 12.2746 18.6206C12.596 18.4867 12.8527 18.3416 13.0447 18.1853C13.2366 18.0291 13.4755 17.884 13.7612 17.7501C14.0469 17.6161 14.346 17.5492 14.6585 17.5492C14.7835 17.5492 14.9599 17.567 15.1875 17.6027C15.4152 17.6384 15.5871 17.6563 15.7032 17.6563C15.846 17.6563 15.9487 17.6117 16.0112 17.5224C16.0737 17.4331 16.1228 17.2992 16.1585 17.1206C16.1942 16.942 16.221 16.8304 16.2389 16.7858C17.4621 16.5893 18.0737 16.2858 18.0737 15.8751ZM20.1362 7.33711C20.1362 7.33711 20.3661 7.73108 20.8259 8.51903C21.2857 9.30697 21.5157 10.634 21.5157 12.5001C21.5157 14.3661 21.0558 16.0871 20.1362 17.663C19.2166 19.2389 17.9688 20.4867 16.3929 21.4063C14.817 22.3259 13.096 22.7858 11.2299 22.7858C9.36387 22.7858 7.64289 22.3259 6.067 21.4063C4.4911 20.4867 3.24334 19.2389 2.32369 17.663C1.40405 16.0871 0.944229 14.3661 0.944229 12.5001C0.944229 10.634 1.40405 8.913 2.32369 7.33711C3.24334 5.76121 4.4911 4.51344 6.067 3.5938C7.64289 2.67416 9.36387 2.21434 11.2299 2.21434C13.096 2.21434 14.817 2.67416 16.3929 3.5938C17.9688 4.51344 19.2166 5.76121 20.1362 7.33711Z" fill="white"/>
</g>
<defs>
<clipPath id="clip0_1_35">
<rect width="20.58" height="24" fill="white" transform="matrix(1 0 0 -1 0.939941 24.5)"/>
</clipPath>
</defs>
</svg>
