<svg width="24" height="25" viewBox="0 0 24 25" fill="none" xmlns="http://www.w3.org/2000/svg">
<g clip-path="url(#clip0_1_39)">
<path d="M22.0542 5.96427C21.456 6.83927 20.7327 7.5848 19.8845 8.20088C19.8935 8.32588 19.8979 8.51338 19.8979 8.76338C19.8979 9.92409 19.7283 11.0826 19.389 12.2388C19.0497 13.3951 18.5341 14.5044 17.8421 15.5669C17.1501 16.6294 16.3265 17.5692 15.3711 18.3861C14.4158 19.2031 13.264 19.8549 11.9158 20.3415C10.5676 20.8281 9.12559 21.0714 7.58988 21.0714C5.17024 21.0714 2.95595 20.4241 0.947023 19.1294C1.25952 19.1652 1.60774 19.183 1.99167 19.183C4.00059 19.183 5.79077 18.5669 7.3622 17.3348C6.4247 17.3169 5.58542 17.029 4.84434 16.471C4.10327 15.9129 3.59434 15.2009 3.31756 14.3348C3.6122 14.3794 3.88452 14.4018 4.13452 14.4018C4.51845 14.4018 4.89792 14.3527 5.27292 14.2544C4.27292 14.0491 3.44479 13.5513 2.78854 12.7611C2.13229 11.971 1.80417 11.0536 1.80417 10.0089V9.95534C2.41131 10.2946 3.06309 10.4777 3.75952 10.5044C3.17024 10.1116 2.70149 9.5982 2.35327 8.96427C2.00506 8.33034 1.83095 7.64284 1.83095 6.90177C1.83095 6.11605 2.02738 5.38838 2.42024 4.71873C3.50059 6.04909 4.81533 7.11382 6.36443 7.91293C7.91354 8.71204 9.57202 9.15623 11.3399 9.24552C11.2685 8.90623 11.2327 8.57588 11.2327 8.25445C11.2327 7.05802 11.6546 6.03793 12.4984 5.19418C13.3421 4.35043 14.3622 3.92856 15.5586 3.92856C16.8086 3.92856 17.8622 4.38391 18.7193 5.29463C19.6926 5.10713 20.6077 4.75891 21.4649 4.24998C21.1345 5.27677 20.5006 6.07141 19.5631 6.63391C20.3935 6.54463 21.2238 6.32141 22.0542 5.96427Z" fill="white"/>
</g>
<defs>
<clipPath id="clip0_1_39">
<rect width="22.3" height="24" fill="white" transform="matrix(1 0 0 -1 0.93988 24.5)"/>
</clipPath>
</defs>
</svg>
