<svg width="16" height="13" viewBox="0 0 16 13" fill="none" xmlns="http://www.w3.org/2000/svg">
<path d="M15.4 4.33311V10.9793C15.4 11.3476 15.2689 11.6629 15.0066 11.9252C14.7443 12.1875 14.429 12.3186 14.0607 12.3186H1.73931C1.37101 12.3186 1.05572 12.1875 0.79344 11.9252C0.531163 11.6629 0.400024 11.3476 0.400024 10.9793V4.33311C0.64556 4.60655 0.927368 4.8493 1.24545 5.06135C3.26554 6.43412 4.65226 7.39673 5.4056 7.94918C5.72368 8.18356 5.98178 8.36632 6.17988 8.49745C6.37798 8.62859 6.64165 8.76252 6.97089 8.89924C7.30014 9.03596 7.60706 9.10432 7.89165 9.10432H7.90002H7.90839C8.19299 9.10432 8.49991 9.03596 8.82915 8.89924C9.15839 8.76252 9.42207 8.62859 9.62017 8.49745C9.81827 8.36632 10.0764 8.18356 10.3944 7.94918C11.3431 7.2628 12.7326 6.30019 14.563 5.06135C14.8811 4.84372 15.1601 4.60097 15.4 4.33311ZM15.4 1.87218C15.4 2.31302 15.2633 2.73434 14.9899 3.13613C14.7164 3.53791 14.376 3.8811 13.9687 4.1657C11.8704 5.62218 10.5646 6.52898 10.0513 6.88613C9.99545 6.92519 9.87687 7.01029 9.6955 7.14143C9.51414 7.27257 9.36347 7.37859 9.24349 7.45951C9.12352 7.54042 8.97843 7.6311 8.80823 7.73155C8.63803 7.832 8.47759 7.90733 8.32692 7.95755C8.17625 8.00778 8.03674 8.03289 7.90839 8.03289H7.90002H7.89165C7.76331 8.03289 7.6238 8.00778 7.47313 7.95755C7.32246 7.90733 7.16202 7.832 6.99182 7.73155C6.82162 7.6311 6.67653 7.54042 6.55655 7.45951C6.43658 7.37859 6.28591 7.27257 6.10454 7.14143C5.92318 7.01029 5.8046 6.92519 5.7488 6.88613C5.24098 6.52898 4.50996 6.01978 3.55572 5.3585C2.60148 4.69723 2.02949 4.29963 1.83976 4.1657C1.49377 3.93133 1.16732 3.60906 0.860404 3.1989C0.553484 2.78875 0.400024 2.40789 0.400024 2.05633C0.400024 1.62106 0.515817 1.25834 0.747402 0.968158C0.978986 0.677979 1.30962 0.532889 1.73931 0.532889H14.0607C14.4235 0.532889 14.7374 0.664028 15.0024 0.926305C15.2675 1.18858 15.4 1.50387 15.4 1.87218Z" fill="black"/>
</svg>
