<svg width="65" height="56" viewBox="0 0 65 56" fill="none" xmlns="http://www.w3.org/2000/svg">
<path d="M34.5515 54.8657C34.1229 55.2943 33.5991 55.5085 32.98 55.5085C32.361 55.5085 31.8372 55.2943 31.4086 54.8657L9.1229 33.3657C8.8848 33.1752 8.55742 32.8657 8.14076 32.4371C7.72409 32.0085 7.06337 31.2288 6.15861 30.0978C5.25385 28.9669 4.44433 27.8062 3.73004 26.6157C3.01576 25.4252 2.37885 23.9847 1.81933 22.2943C1.2598 20.6038 0.980042 18.9609 0.980042 17.3657C0.980042 12.1276 2.49195 8.03235 5.51576 5.07997C8.53957 2.12759 12.7181 0.651398 18.0515 0.651398C19.5277 0.651398 21.0336 0.907352 22.5693 1.41926C24.105 1.93116 25.5336 2.62164 26.855 3.49068C28.1765 4.35973 29.3134 5.17521 30.2658 5.93711C31.2181 6.69902 32.1229 7.50854 32.98 8.36568C33.8372 7.50854 34.7419 6.69902 35.6943 5.93711C36.6467 5.17521 37.7836 4.35973 39.105 3.49068C40.4265 2.62164 41.855 1.93116 43.3908 1.41926C44.9265 0.907352 46.4324 0.651398 47.9086 0.651398C53.2419 0.651398 57.4205 2.12759 60.4443 5.07997C63.4681 8.03235 64.98 12.1276 64.98 17.3657C64.98 22.6276 62.2539 27.9847 56.8015 33.4371L34.5515 54.8657Z" fill="black"/>
</svg>
