<svg width="56" height="56" viewBox="0 0 56 56" fill="none" xmlns="http://www.w3.org/2000/svg">
<path d="M34.4043 34.5443C34.4043 34.5443 34.8508 34.0978 35.7436 33.205C36.6365 32.3121 37.0829 30.6038 37.0829 28.08C37.0829 25.5562 36.19 23.4014 34.4043 21.6157C32.6186 19.83 30.4639 18.9371 27.94 18.9371C25.4162 18.9371 23.2615 19.83 21.4758 21.6157C19.69 23.4014 18.7972 25.5562 18.7972 28.08C18.7972 30.6038 19.69 32.7585 21.4758 34.5443C23.2615 36.33 25.4162 37.2228 27.94 37.2228C30.4639 37.2228 32.6186 36.33 34.4043 34.5443ZM55.3686 24.1871V32.1157C55.3686 32.4014 55.2734 32.6752 55.0829 32.9371C54.8924 33.199 54.6543 33.3538 54.3686 33.4014L47.7615 34.4014C47.3091 35.6871 46.8448 36.7704 46.3686 37.6514C47.202 38.8419 48.4758 40.4847 50.19 42.58C50.4281 42.8657 50.5472 43.1633 50.5472 43.4728C50.5472 43.7824 50.44 44.0562 50.2258 44.2943C49.5829 45.1752 48.4043 46.4609 46.69 48.1514C44.9758 49.8419 43.8567 50.6871 43.3329 50.6871C43.0472 50.6871 42.7377 50.58 42.4043 50.3657L37.4758 46.5085C36.4281 47.0562 35.3448 47.5085 34.2258 47.8657C33.8448 51.1038 33.4996 53.3181 33.19 54.5085C33.0234 55.1752 32.5948 55.5085 31.9043 55.5085H23.9758C23.6424 55.5085 23.3508 55.4074 23.1008 55.205C22.8508 55.0026 22.7139 54.7466 22.69 54.4371L21.69 47.8657C20.5234 47.4847 19.452 47.0443 18.4758 46.5443L13.44 50.3657C13.202 50.58 12.9043 50.6871 12.5472 50.6871C12.2139 50.6871 11.9162 50.5562 11.6543 50.2943C8.65433 47.58 6.69005 45.58 5.76147 44.2943C5.59481 44.0562 5.51147 43.7824 5.51147 43.4728C5.51147 43.1871 5.60671 42.9133 5.79719 42.6514C6.15433 42.1514 6.76148 41.3597 7.61862 40.2764C8.47576 39.1931 9.11862 38.3538 9.54719 37.7585C8.90433 36.5681 8.41624 35.3895 8.0829 34.2228L1.54719 33.2585C1.23767 33.2109 0.987665 33.0621 0.797189 32.8121C0.606713 32.5621 0.511475 32.2824 0.511475 31.9728V24.0443C0.511475 23.7585 0.606713 23.4847 0.797189 23.2228C0.987665 22.9609 1.21386 22.8062 1.47576 22.7585L8.11862 21.7585C8.45195 20.6633 8.91624 19.5681 9.51147 18.4728C8.55909 17.1157 7.28528 15.4728 5.69005 13.5443C5.45195 13.2585 5.3329 12.9728 5.3329 12.6871C5.3329 12.449 5.44005 12.1752 5.65433 11.8657C6.27338 11.0085 7.446 9.72878 9.17219 8.0264C10.8984 6.32402 12.0234 5.47283 12.5472 5.47283C12.8567 5.47283 13.1662 5.59188 13.4758 5.82997L18.4043 9.6514C19.452 9.10378 20.5353 8.6514 21.6543 8.29426C22.0353 5.05616 22.3805 2.84188 22.69 1.6514C22.8567 0.984734 23.2853 0.651398 23.9758 0.651398H31.9043C32.2377 0.651398 32.5293 0.75259 32.7793 0.954971C33.0293 1.15735 33.1662 1.4133 33.19 1.72283L34.19 8.29426C35.3567 8.67521 36.4281 9.11568 37.4043 9.61568L42.4758 5.79426C42.69 5.57997 42.9758 5.47283 43.3329 5.47283C43.6424 5.47283 43.94 5.59188 44.2258 5.82997C47.2972 8.6633 49.2615 10.6871 50.1186 11.9014C50.2853 12.0919 50.3686 12.3538 50.3686 12.6871C50.3686 12.9728 50.2734 13.2466 50.0829 13.5085C49.7258 14.0085 49.1186 14.8002 48.2615 15.8835C47.4043 16.9669 46.7615 17.8062 46.3329 18.4014C46.952 19.5919 47.44 20.7585 47.7972 21.9014L54.3329 22.9014C54.6424 22.949 54.8924 23.0978 55.0829 23.3478C55.2734 23.5978 55.3686 23.8776 55.3686 24.1871Z" fill="black"/>
</svg>
