<svg width="215" height="201" viewBox="0 0 215 201" fill="none" xmlns="http://www.w3.org/2000/svg">
<g clip-path="url(#clip0_1_19)">
<path d="M179.641 87.1071C179.641 87.1071 180.683 86.0654 182.766 83.9821C184.85 81.8988 185.891 77.8809 185.891 71.9285C185.891 65.9761 183.808 60.9166 179.641 56.7499C175.475 52.5833 170.415 50.4999 164.463 50.4999H157.32V93.3571H164.463C170.415 93.3571 175.475 91.2738 179.641 87.1071ZM0.177124 157.643H200.177C200.177 165.53 197.387 172.263 191.807 177.844C186.226 183.424 179.493 186.214 171.606 186.214H28.7486C20.8616 186.214 14.128 183.424 8.54766 177.844C2.9673 172.263 0.177124 165.53 0.177124 157.643ZM194.764 41.6272C194.764 41.6272 196.857 43.7198 201.042 47.9051C205.227 52.0904 207.32 60.0982 207.32 71.9285C207.32 83.7589 203.135 93.8593 194.764 102.23C186.394 110.6 176.293 114.786 164.463 114.786H157.32V118.357C157.32 125.202 154.865 131.08 149.954 135.991C145.043 140.902 139.165 143.357 132.32 143.357H53.7486C46.9033 143.357 41.0253 140.902 36.1146 135.991C31.2039 131.08 28.7486 125.202 28.7486 118.357V36.2142C28.7486 34.2797 29.4554 32.6056 30.8691 31.1919C32.2828 29.7782 33.9569 29.0714 35.8914 29.0714H164.463C176.293 29.0714 186.394 33.2566 194.764 41.6272Z" fill="#F44336"/>
</g>
<defs>
<clipPath id="clip0_1_19">
<rect width="214.3" height="200" fill="white" transform="matrix(1 0 0 -1 0.169983 200.5)"/>
</clipPath>
</defs>
</svg>
