<svg width="22" height="21" viewBox="0 0 22 21" fill="none" xmlns="http://www.w3.org/2000/svg">
<path d="M19.9573 0.214338C20.2698 0.214338 20.5377 0.325945 20.7609 0.549159C20.9841 0.772374 21.0957 1.04023 21.0957 1.35273V19.6474C21.0957 19.9599 20.9841 20.2277 20.7609 20.4509C20.5377 20.6742 20.2698 20.7858 19.9573 20.7858H14.7207V12.817H17.3859L17.7877 9.70987H14.7207V7.72773C14.7207 7.22773 14.8256 6.85273 15.0355 6.60273C15.2453 6.35273 15.6538 6.22773 16.2609 6.22773L17.8948 6.21434V3.44202C17.3323 3.36166 16.5377 3.32148 15.5109 3.32148C14.2966 3.32148 13.3256 3.67862 12.598 4.39291C11.8703 5.1072 11.5065 6.11612 11.5065 7.4197V9.70987H8.82788V12.817H11.5065V20.7858H1.6627C1.3502 20.7858 1.08234 20.6742 0.859129 20.4509C0.635914 20.2277 0.524307 19.9599 0.524307 19.6474V1.35273C0.524307 1.04023 0.635914 0.772374 0.859129 0.549159C1.08234 0.325945 1.3502 0.214338 1.6627 0.214338H19.9573Z" fill="white"/>
</svg>
