<svg width="74" height="61" viewBox="0 0 74 61" fill="none" xmlns="http://www.w3.org/2000/svg">
<path d="M7.95003 23.5085L30.2 47.2585L19.4857 23.5085H7.95003ZM36.95 51.08L49.4143 23.5085H24.4857L36.95 51.08ZM19.5929 18.9371L26.8786 5.22281H17.5215L7.23574 18.9371H19.5929ZM43.7 47.2585L65.95 23.5085H54.4143L43.7 47.2585ZM24.7715 18.9371H49.1286L41.8429 5.22281H32.0572L24.7715 18.9371ZM54.3072 18.9371H66.6643L56.3786 5.22281H47.0215L54.3072 18.9371ZM59.3429 1.57995L73.0572 19.8657C73.3905 20.2942 73.5453 20.7883 73.5215 21.3478C73.4977 21.9073 73.2953 22.3895 72.9143 22.7942L38.6286 59.3657C38.2 59.8419 37.6405 60.08 36.95 60.08C36.2596 60.08 35.7 59.8419 35.2715 59.3657L0.985745 22.7942C0.604792 22.3895 0.402411 21.9073 0.378602 21.3478C0.354792 20.7883 0.509554 20.2942 0.842887 19.8657L14.5572 1.57995C14.9857 0.960907 15.5929 0.651382 16.3786 0.651382H57.5215C58.3072 0.651382 58.9143 0.960907 59.3429 1.57995Z" fill="black"/>
</svg>
