<svg width="11" height="14" viewBox="0 0 11 14" fill="none" xmlns="http://www.w3.org/2000/svg">
<path d="M10.9371 11.2104C10.9371 11.8186 10.7627 12.3404 10.414 12.7757C10.0652 13.2109 9.64527 13.4286 9.1542 13.4286H2.00576C1.51469 13.4286 1.09477 13.2109 0.745998 12.7757C0.397225 12.3404 0.222839 11.8186 0.222839 11.2104C0.222839 10.736 0.246556 10.2882 0.293989 9.8669C0.341422 9.44558 0.429313 9.02147 0.557661 8.59457C0.686009 8.16768 0.849234 7.80216 1.04734 7.49803C1.24544 7.1939 1.50772 6.94558 1.83417 6.75306C2.16062 6.56053 2.5359 6.46427 2.96 6.46427C3.69103 7.17856 4.56436 7.5357 5.57998 7.5357C6.59561 7.5357 7.46893 7.17856 8.19996 6.46427C8.62407 6.46427 8.99935 6.56053 9.3258 6.75306C9.65225 6.94558 9.91452 7.1939 10.1126 7.49803C10.3107 7.80216 10.474 8.16768 10.6023 8.59457C10.7307 9.02147 10.8185 9.44558 10.866 9.8669C10.9134 10.2882 10.9371 10.736 10.9371 11.2104ZM7.85258 1.5131C7.85258 1.5131 8.00953 1.67005 8.32343 1.98394C8.63732 2.29784 8.79427 2.89843 8.79427 3.7857C8.79427 4.67298 8.48037 5.43051 7.85258 6.0583C7.22479 6.68609 6.46726 6.99999 5.57998 6.99999C4.69271 6.99999 3.93517 6.68609 3.30738 6.0583C2.67959 5.43051 2.3657 4.67298 2.3657 3.7857C2.3657 2.89843 2.67959 2.14089 3.30738 1.5131C3.93517 0.885311 4.69271 0.571416 5.57998 0.571416C6.46726 0.571416 7.22479 0.885311 7.85258 1.5131Z" fill="black"/>
</svg>
