<svg width="16" height="13" viewBox="0 0 16 13" fill="none" xmlns="http://www.w3.org/2000/svg">
<path d="M5.21571 9.94643V11.5536C5.21571 11.7768 5.13758 11.9665 4.98133 12.1228C4.82508 12.279 4.63535 12.3571 4.41214 12.3571H1.73356C1.51035 12.3571 1.32062 12.279 1.16437 12.1228C1.00812 11.9665 0.929993 11.7768 0.929993 11.5536V9.94643C0.929993 9.72322 1.00812 9.53349 1.16437 9.37724C1.32062 9.22099 1.51035 9.14286 1.73356 9.14286H4.41214C4.63535 9.14286 4.82508 9.22099 4.98133 9.37724C5.13758 9.53349 5.21571 9.72322 5.21571 9.94643ZM5.21571 5.66072V7.26786C5.21571 7.49108 5.13758 7.68081 4.98133 7.83706C4.82508 7.99331 4.63535 8.07143 4.41214 8.07143H1.73356C1.51035 8.07143 1.32062 7.99331 1.16437 7.83706C1.00812 7.68081 0.929993 7.49108 0.929993 7.26786V5.66072C0.929993 5.4375 1.00812 5.24777 1.16437 5.09152C1.32062 4.93527 1.51035 4.85715 1.73356 4.85715H4.41214C4.63535 4.85715 4.82508 4.93527 4.98133 5.09152C5.13758 5.24777 5.21571 5.4375 5.21571 5.66072ZM10.5728 9.94643V11.5536C10.5728 11.7768 10.4947 11.9665 10.3385 12.1228C10.1822 12.279 9.99249 12.3571 9.76928 12.3571H7.09071C6.86749 12.3571 6.67776 12.279 6.52151 12.1228C6.36526 11.9665 6.28714 11.7768 6.28714 11.5536V9.94643C6.28714 9.72322 6.36526 9.53349 6.52151 9.37724C6.67776 9.22099 6.86749 9.14286 7.09071 9.14286H9.76928C9.99249 9.14286 10.1822 9.22099 10.3385 9.37724C10.4947 9.53349 10.5728 9.72322 10.5728 9.94643ZM5.21571 1.375V2.98215C5.21571 3.20536 5.13758 3.39509 4.98133 3.55134C4.82508 3.70759 4.63535 3.78572 4.41214 3.78572H1.73356C1.51035 3.78572 1.32062 3.70759 1.16437 3.55134C1.00812 3.39509 0.929993 3.20536 0.929993 2.98215V1.375C0.929993 1.15179 1.00812 0.962058 1.16437 0.805808C1.32062 0.649558 1.51035 0.571433 1.73356 0.571433H4.41214C4.63535 0.571433 4.82508 0.649558 4.98133 0.805808C5.13758 0.962058 5.21571 1.15179 5.21571 1.375ZM10.5728 5.66072V7.26786C10.5728 7.49108 10.4947 7.68081 10.3385 7.83706C10.1822 7.99331 9.99249 8.07143 9.76928 8.07143H7.09071C6.86749 8.07143 6.67776 7.99331 6.52151 7.83706C6.36526 7.68081 6.28714 7.49108 6.28714 7.26786V5.66072C6.28714 5.4375 6.36526 5.24777 6.52151 5.09152C6.67776 4.93527 6.86749 4.85715 7.09071 4.85715H9.76928C9.99249 4.85715 10.1822 4.93527 10.3385 5.09152C10.4947 5.24777 10.5728 5.4375 10.5728 5.66072ZM15.93 9.94643V11.5536C15.93 11.7768 15.8519 11.9665 15.6956 12.1228C15.5394 12.279 15.3496 12.3571 15.1264 12.3571H12.4478C12.2246 12.3571 12.0349 12.279 11.8787 12.1228C11.7224 11.9665 11.6443 11.7768 11.6443 11.5536V9.94643C11.6443 9.72322 11.7224 9.53349 11.8787 9.37724C12.0349 9.22099 12.2246 9.14286 12.4478 9.14286H15.1264C15.3496 9.14286 15.5394 9.22099 15.6956 9.37724C15.8519 9.53349 15.93 9.72322 15.93 9.94643ZM10.5728 1.375V2.98215C10.5728 3.20536 10.4947 3.39509 10.3385 3.55134C10.1822 3.70759 9.99249 3.78572 9.76928 3.78572H7.09071C6.86749 3.78572 6.67776 3.70759 6.52151 3.55134C6.36526 3.39509 6.28714 3.20536 6.28714 2.98215V1.375C6.28714 1.15179 6.36526 0.962058 6.52151 0.805808C6.67776 0.649558 6.86749 0.571433 7.09071 0.571433H9.76928C9.99249 0.571433 10.1822 0.649558 10.3385 0.805808C10.4947 0.962058 10.5728 1.15179 10.5728 1.375ZM15.93 5.66072V7.26786C15.93 7.49108 15.8519 7.68081 15.6956 7.83706C15.5394 7.99331 15.3496 8.07143 15.1264 8.07143H12.4478C12.2246 8.07143 12.0349 7.99331 11.8787 7.83706C11.7224 7.68081 11.6443 7.49108 11.6443 7.26786V5.66072C11.6443 5.4375 11.7224 5.24777 11.8787 5.09152C12.0349 4.93527 12.2246 4.85715 12.4478 4.85715H15.1264C15.3496 4.85715 15.5394 4.93527 15.6956 5.09152C15.8519 5.24777 15.93 5.4375 15.93 5.66072ZM15.93 1.375V2.98215C15.93 3.20536 15.8519 3.39509 15.6956 3.55134C15.5394 3.70759 15.3496 3.78572 15.1264 3.78572H12.4478C12.2246 3.78572 12.0349 3.70759 11.8787 3.55134C11.7224 3.39509 11.6443 3.20536 11.6443 2.98215V1.375C11.6443 1.15179 11.7224 0.962058 11.8787 0.805808C12.0349 0.649558 12.2246 0.571433 12.4478 0.571433H15.1264C15.3496 0.571433 15.5394 0.649558 15.6956 0.805808C15.8519 0.962058 15.93 1.15179 15.93 1.375Z" fill="black"/>
</svg>
