<svg width="9" height="16" viewBox="0 0 9 16" fill="none" xmlns="http://www.w3.org/2000/svg">
<g clip-path="url(#clip0_1_289)">
<path d="M8.064 10.4191C8.064 11.2729 7.78638 12.0081 7.23113 12.6247C6.67589 13.2414 5.95462 13.6222 5.06735 13.7673V15.2321C5.06735 15.3103 5.04224 15.3744 4.99201 15.4247C4.94179 15.4749 4.87762 15.5 4.79949 15.5H3.66947C3.59692 15.5 3.53414 15.4735 3.48113 15.4205C3.42812 15.3675 3.40161 15.3047 3.40161 15.2321V13.7673C3.03331 13.7171 2.67756 13.6306 2.33437 13.5078C1.99118 13.385 1.70797 13.2609 1.48476 13.1353C1.26154 13.0098 1.05507 12.8758 0.865339 12.7335C0.675607 12.5912 0.545864 12.4866 0.476109 12.4196C0.406355 12.3527 0.357527 12.3025 0.329625 12.269C0.234759 12.1518 0.229178 12.0374 0.312884 11.9258L1.17505 10.7958C1.21411 10.74 1.27829 10.7065 1.36757 10.6953C1.45128 10.6842 1.51824 10.7093 1.56846 10.7706C1.56846 10.7706 1.57404 10.7762 1.58521 10.7874C2.21579 11.3398 2.8938 11.6886 3.61925 11.8337C3.82572 11.8783 4.03219 11.9007 4.23866 11.9007C4.69067 11.9007 5.08827 11.7807 5.43147 11.5407C5.77466 11.3008 5.94625 10.9604 5.94625 10.5195C5.94625 10.3633 5.9044 10.2154 5.8207 10.0759C5.73699 9.93638 5.64352 9.8192 5.54028 9.72433C5.43705 9.62946 5.27382 9.52483 5.05061 9.41044C4.82739 9.29604 4.64324 9.20675 4.49815 9.14258C4.35306 9.0784 4.12985 8.98772 3.82851 8.87054C3.61087 8.78125 3.43928 8.7115 3.31372 8.66127C3.18816 8.61105 3.01657 8.53711 2.79893 8.43945C2.5813 8.3418 2.40691 8.2553 2.27577 8.17997C2.14464 8.10463 1.98699 8.00558 1.80284 7.88281C1.61869 7.76005 1.46941 7.64146 1.35502 7.52706C1.24062 7.41267 1.11925 7.27595 0.990897 7.11691C0.862549 6.95787 0.763497 6.79604 0.693743 6.63142C0.623989 6.4668 0.565395 6.28125 0.517962 6.07478C0.470529 5.8683 0.446812 5.65067 0.446812 5.42188C0.446812 4.65179 0.72025 3.97656 1.26712 3.39621C1.814 2.81585 2.5255 2.44197 3.40161 2.27455V0.767858C3.40161 0.695312 3.42812 0.632534 3.48113 0.57952C3.53414 0.526507 3.59692 0.5 3.66947 0.5H4.79949C4.87762 0.5 4.94179 0.525112 4.99201 0.575336C5.04224 0.625559 5.06735 0.689733 5.06735 0.767858V2.24107C5.38543 2.27455 5.69374 2.33873 5.99229 2.43359C6.29084 2.52846 6.53359 2.62193 6.72053 2.71401C6.90747 2.80608 7.08465 2.91072 7.25206 3.0279C7.41947 3.14509 7.52829 3.226 7.57851 3.27065C7.62873 3.31529 7.67058 3.35435 7.70407 3.38784C7.79893 3.48828 7.81288 3.59431 7.74592 3.70592L7.06791 4.92801C7.02326 5.01172 6.95909 5.05636 6.87538 5.06194C6.79726 5.07868 6.72192 5.05915 6.64938 5.00335C6.63264 4.98661 6.59218 4.95312 6.52801 4.9029C6.46383 4.85268 6.35502 4.77874 6.20156 4.68108C6.0481 4.58343 5.88487 4.49414 5.71188 4.41323C5.53889 4.33231 5.33102 4.25977 5.08827 4.19559C4.84553 4.13142 4.60697 4.09933 4.37259 4.09933C3.84246 4.09933 3.40998 4.21931 3.07516 4.45926C2.74034 4.69922 2.57293 5.00893 2.57293 5.38839C2.57293 5.53348 2.59664 5.66741 2.64408 5.79018C2.69151 5.91295 2.77382 6.02874 2.89101 6.13756C3.0082 6.24637 3.11841 6.33845 3.22164 6.41378C3.32488 6.48912 3.48113 6.57561 3.69039 6.67327C3.89966 6.77093 4.06846 6.84626 4.19681 6.89927C4.32516 6.95229 4.52047 7.02902 4.78275 7.12946C5.07851 7.24107 5.30451 7.32896 5.46076 7.39314C5.61701 7.45731 5.82907 7.55497 6.09692 7.68611C6.36478 7.81724 6.57544 7.93583 6.7289 8.04185C6.88236 8.14788 7.05535 8.28739 7.24787 8.46038C7.44039 8.63337 7.58827 8.81055 7.69151 8.99191C7.79475 9.17327 7.88264 9.38672 7.95518 9.63225C8.02773 9.87779 8.064 10.1401 8.064 10.4191Z" fill="black"/>
</g>
<defs>
<clipPath id="clip0_1_289">
<rect width="8.58" height="15" fill="white" transform="matrix(1 0 0 -1 0.25 15.5)"/>
</clipPath>
</defs>
</svg>
