<svg width="70" height="60" viewBox="0 0 70 60" fill="none" xmlns="http://www.w3.org/2000/svg">
<path d="M64.7043 35.5085V5.79426C64.7043 5.48473 64.5912 5.21688 64.365 4.99068C64.1388 4.7645 63.871 4.6514 63.5614 4.6514H6.41857C6.10905 4.6514 5.84119 4.7645 5.615 4.99068C5.38881 5.21688 5.27571 5.48473 5.27571 5.79426V35.5085C5.27571 35.8181 5.38881 36.0859 5.615 36.3121C5.84119 36.5383 6.10905 36.6514 6.41857 36.6514H63.5614C63.871 36.6514 64.1388 36.5383 64.365 36.3121C64.5912 36.0859 64.7043 35.8181 64.7043 35.5085ZM69.2757 5.79426V44.6514C69.2757 46.2228 68.7162 47.5681 67.5971 48.6871C66.4781 49.8062 65.1329 50.3657 63.5614 50.3657H44.1329C44.1329 51.2466 44.3233 52.1693 44.7043 53.1335C45.0852 54.0978 45.4662 54.9431 45.8471 55.6693C46.2281 56.3954 46.4186 56.9133 46.4186 57.2228C46.4186 57.8419 46.1924 58.3776 45.74 58.83C45.2876 59.2824 44.7519 59.5085 44.1329 59.5085H25.8471C25.2281 59.5085 24.6924 59.2824 24.24 58.83C23.7876 58.3776 23.5614 57.8419 23.5614 57.2228C23.5614 56.8895 23.7519 56.3657 24.1329 55.6514C24.5138 54.9371 24.8948 54.1038 25.2757 53.1514C25.6567 52.199 25.8471 51.2704 25.8471 50.3657H6.41857C4.84714 50.3657 3.5019 49.8062 2.38286 48.6871C1.26381 47.5681 0.704285 46.2228 0.704285 44.6514V5.79426C0.704285 4.22283 1.26381 2.87759 2.38286 1.75854C3.5019 0.639496 4.84714 0.0799713 6.41857 0.0799713H63.5614C65.1329 0.0799713 66.4781 0.639496 67.5971 1.75854C68.7162 2.87759 69.2757 4.22283 69.2757 5.79426Z" fill="black"/>
</svg>
